<?xml version="1.0" encoding="iso-8859-1"?>
<!-- Generator: Adobe Illustrator 19.0.0, SVG Export Plug-In . SVG Version: 6.00 Build 0)  -->
<svg version="1.1" id="Capa_1" xmlns="http://www.w3.org/2000/svg" xmlns:xlink="http://www.w3.org/1999/xlink" x="0px" y="0px"
	 viewBox="0 0 490 490" style="enable-background:new 0 0 490 490;" xml:space="preserve">
<g>
	<path d="M245,0C109.69,0,0,109.69,0,245s109.69,245,245,245s245-109.69,245-245S380.31,0,245,0z M245,459.375
		c-118.206,0-214.375-96.169-214.375-214.375c0-118.207,96.169-214.375,214.375-214.375c118.207,0,214.375,96.168,214.375,214.375
		C459.375,363.206,363.207,459.375,245,459.375z"/>
	<circle cx="245" cy="110.546" r="39.483"/>
	<path d="M204.983,159.099c0,0-40.016,0.534-40.016,37.349c0,36.815,0,45.352,0,45.352s77.897,0,78.165,0L204.983,159.099z"/>
	<path d="M285.017,159.099l-38.15,82.701h78.166c0,0,0-8.537,0-45.352C325.034,159.633,285.017,159.099,285.017,159.099z"/>
	<polygon points="217.522,159.099 245,219.925 272.478,159.099 245,159.099 	"/>
	<polygon points="260.312,278.945 229.687,278.945 229.687,348.693 197.148,348.693 245,412.996 292.852,348.693 260.312,348.693 	
		"/>
</g>
<g>
</g>
<g>
</g>
<g>
</g>
<g>
</g>
<g>
</g>
<g>
</g>
<g>
</g>
<g>
</g>
<g>
</g>
<g>
</g>
<g>
</g>
<g>
</g>
<g>
</g>
<g>
</g>
<g>
</g>
</svg>
